{"asset":{"version":"2.0","generator":"babylon.js glTF exporter for Maya 2018 v20210308.2"},"scene":0,"scenes":[{"nodes":[0]}],"nodes":[{"children":[1],"translation":[-0.043611858,0.0,0.21754162],"scale":[10.0,10.0,10.0],"name":"FSO_OrthoticProducts_model_final:Orthotics_models"},{"children":[2,3,4,5],"translation":[-0.111704975,0.0019069683,0.0156115657],"rotation":[0.0,0.0243475363,0.0,0.9997035],"scale":[13.7612629,11.9306078,11.9306078],"name":"FSO_OrthoticProducts_model_final:Type3_insole"},{"mesh":0,"translation":[-8.673617E-21,0.0,0.0],"name":"FSO_OrthoticProducts_model_final:TopSheet"},{"mesh":1,"translation":[-8.673617E-21,0.0,0.0],"name":"FSO_OrthoticProducts_model_final:WhiteFoamLayer"},{"mesh":2,"translation":[-8.673617E-21,0.0,0.0],"name":"FSO_OrthoticProducts_model_final:BlackFoamLayer"},{"mesh":3,"translation":[-8.673617E-21,0.0,0.0],"name":"FSO_OrthoticProducts_model_final:polySurface1"}],"meshes":[{"primitives":[{"attributes":{"POSITION":1,"TANGENT":2,"NORMAL":3,"TEXCOORD_0":4},"indices":0,"material":0}],"name":"FSO_OrthoticProducts_model_final:TopSheet"},{"primitives":[{"attributes":{"POSITION":6,"TANGENT":7,"NORMAL":8,"TEXCOORD_0":9},"indices":5,"material":1}],"name":"FSO_OrthoticProducts_model_final:WhiteFoamLayer"},{"primitives":[{"attributes":{"POSITION":11,"TANGENT":12,"NORMAL":13,"TEXCOORD_0":14},"indices":10,"material":2}],"name":"FSO_OrthoticProducts_model_final:BlackFoamLayer"},{"primitives":[{"attributes":{"POSITION":16,"TANGENT":17,"NORMAL":18,"TEXCOORD_0":19},"indices":15,"material":3}],"name":"FSO_OrthoticProducts_model_final:polySurface1"}],"accessors":[{"bufferView":0,"componentType":5123,"count":3660,"type":"SCALAR","name":"accessorIndices"},{"bufferView":1,"componentType":5126,"count":730,"max":[0.00322005,0.00211784313,0.0124955662],"min":[-0.00398323825,5.29681129E-05,-0.0122068524],"type":"VEC3","name":"accessorPositions"},{"bufferView":2,"componentType":5126,"count":730,"type":"VEC4","name":"accessorTangents"},{"bufferView":1,"byteOffset":8760,"componentType":5126,"count":730,"type":"VEC3","name":"accessorNormals"},{"bufferView":3,"componentType":5126,"count":730,"type":"VEC2","name":"accessorUVs"},{"bufferView":0,"byteOffset":7320,"componentType":5123,"count":4344,"type":"SCALAR","name":"accessorIndices"},{"bufferView":1,"byteOffset":17520,"componentType":5126,"count":1068,"max":[0.00322021171,0.00211510528,0.0124958772],"min":[-0.003983077,-8.271314E-05,-0.01220721],"type":"VEC3","name":"accessorPositions"},{"bufferView":2,"byteOffset":11680,"componentType":5126,"count":1068,"type":"VEC4","name":"accessorTangents"},{"bufferView":1,"byteOffset":30336,"componentType":5126,"count":1068,"type":"VEC3","name":"accessorNormals"},{"bufferView":3,"byteOffset":5840,"componentType":5126,"count":1068,"type":"VEC2","name":"accessorUVs"},{"bufferView":0,"byteOffset":16008,"componentType":5123,"count":3588,"type":"SCALAR","name":"accessorIndices"},{"bufferView":1,"byteOffset":43152,"componentType":5126,"count":710,"max":[0.00322869117,0.001974322,0.012487391],"min":[-0.00356969284,4.6608493E-05,-0.00306174275],"type":"VEC3","name":"accessorPositions"},{"bufferView":2,"byteOffset":28768,"componentType":5126,"count":710,"type":"VEC4","name":"accessorTangents"},{"bufferView":1,"byteOffset":51672,"componentType":5126,"count":710,"type":"VEC3","name":"accessorNormals"},{"bufferView":3,"byteOffset":14384,"componentType":5126,"count":710,"type":"VEC2","name":"accessorUVs"},{"bufferView":0,"byteOffset":23184,"componentType":5123,"count":4710,"type":"SCALAR","name":"accessorIndices"},{"bufferView":1,"byteOffset":60192,"componentType":5126,"count":1148,"max":[0.00322044524,0.0019298438,0.0125007564],"min":[-0.003984167,-0.000175844092,-0.0122072082],"type":"VEC3","name":"accessorPositions"},{"bufferView":2,"byteOffset":40128,"componentType":5126,"count":1148,"type":"VEC4","name":"accessorTangents"},{"bufferView":1,"byteOffset":73968,"componentType":5126,"count":1148,"type":"VEC3","name":"accessorNormals"},{"bufferView":3,"byteOffset":20064,"componentType":5126,"count":1148,"type":"VEC2","name":"accessorUVs"}],"bufferViews":[{"buffer":0,"byteLength":32604,"name":"bufferViewScalar"},{"buffer":0,"byteOffset":32604,"byteLength":87744,"byteStride":12,"name":"bufferViewFloatVec3"},{"buffer":0,"byteOffset":120348,"byteLength":58496,"byteStride":16,"name":"bufferViewFloatVec4"},{"buffer":0,"byteOffset":178844,"byteLength":29248,"byteStride":8,"name":"bufferViewFloatVec2"}],"buffers":[{"uri":"FSO_OrthoticProducts2.bin","byteLength":208092}],"materials":[{"pbrMetallicRoughness":{"baseColorFactor":[0.0,0.0,0.0,1.0],"metallicFactor":0.0},"name":"FSO_OrthoticProducts_model_final:TopFabric_Type3"},{"pbrMetallicRoughness":{"baseColorFactor":[0.7196262,0.7196262,0.7196262,1.0],"metallicFactor":0.0,"roughnessFactor":0.0},"name":"FSO_OrthoticProducts_model_final:WhiteFoam"},{"pbrMetallicRoughness":{"baseColorFactor":[0.0,0.0,0.0,1.0],"metallicFactor":0.0},"name":"FSO_OrthoticProducts_model_final:BlackFoam"},{"pbrMetallicRoughness":{"baseColorFactor":[0.4080853,0.308231145,0.258216023,1.0],"metallicFactor":0.0,"roughnessFactor":0.8262911},"name":"FSO_OrthoticProducts_model_final:Cork_layer"}]}