{"asset":{"version":"2.0","generator":"babylon.js glTF exporter for Maya 2018 v20210308.2"},"scene":0,"scenes":[{"nodes":[0,1,2,3,5,11]}],"nodes":[{"mesh":0,"scale":[235.135223,235.135223,235.135223],"name":"GroundPlane"},{"translation":[0.5374934,0.217245042,-0.117717355],"rotation":[-0.0775684,0.8789542,0.153244749,0.4449031],"name":"locator1"},{"translation":[0.09213153,0.0120649431,0.226660013],"name":"locator2"},{"children":[4],"name":"tool_biologicsVial_plastic_lighting_final:Lights"},{"rotation":[-0.1635734,0.9483151,-0.0815595761,0.259403646],"name":"tool_biologicsVial_plastic_lighting_final:aiSkyDomeLight1"},{"children":[6],"translation":[-0.043611858,0.0,0.21754162],"name":"FSO_OrthoticProducts_model_final:Orthotics_models"},{"children":[7,8,9,10],"translation":[0.135290712,0.0,0.00696662534],"rotation":[0.0,0.0243475363,0.0,0.9997035],"scale":[13.7612629,11.9306078,11.9306078],"name":"FSO_OrthoticProducts_model_final:Type1_insole"},{"mesh":1,"translation":[-8.673617E-21,0.0,0.0],"name":"FSO_OrthoticProducts_model_final:TopSheet"},{"mesh":2,"translation":[-8.673617E-21,0.0,0.0],"name":"FSO_OrthoticProducts_model_final:WhiteFoamLayer"},{"mesh":3,"translation":[-8.673617E-21,0.0,0.0],"name":"FSO_OrthoticProducts_model_final:BlackFoamLayer"},{"mesh":4,"translation":[-8.673617E-21,0.0,0.0],"name":"FSO_OrthoticProducts_model_final:polySurface1"},{"camera":0,"translation":[0.5374934,0.217245042,-0.117717355],"rotation":[-0.0775684,0.8789542,0.153244749,0.4449031],"name":"tool_biologicsVial_plastic_lighting_final:Camera1"}],"cameras":[{"perspective":{"yfov":0.3173105,"zfar":10000.0,"znear":0.01},"type":"perspective","name":"tool_biologicsVial_plastic_lighting_final:Camera1"}],"meshes":[{"primitives":[{"attributes":{"POSITION":1,"TANGENT":2,"NORMAL":3,"TEXCOORD_0":4},"indices":0,"material":0}],"name":"GroundPlane"},{"primitives":[{"attributes":{"POSITION":6,"TANGENT":7,"NORMAL":8,"TEXCOORD_0":9},"indices":5,"material":1}],"name":"FSO_OrthoticProducts_model_final:TopSheet"},{"primitives":[{"attributes":{"POSITION":11,"TANGENT":12,"NORMAL":13,"TEXCOORD_0":14},"indices":10,"material":2}],"name":"FSO_OrthoticProducts_model_final:WhiteFoamLayer"},{"primitives":[{"attributes":{"POSITION":16,"TANGENT":17,"NORMAL":18,"TEXCOORD_0":19},"indices":15,"material":3}],"name":"FSO_OrthoticProducts_model_final:BlackFoamLayer"},{"primitives":[{"attributes":{"POSITION":21,"TANGENT":22,"NORMAL":23,"TEXCOORD_0":24},"indices":20,"material":4}],"name":"FSO_OrthoticProducts_model_final:polySurface1"}],"accessors":[{"bufferView":0,"componentType":5123,"count":600,"type":"SCALAR","name":"accessorIndices"},{"bufferView":1,"componentType":5126,"count":121,"max":[0.005,0.0,0.005],"min":[-0.005,0.0,-0.005],"type":"VEC3","name":"accessorPositions"},{"bufferView":2,"componentType":5126,"count":121,"type":"VEC4","name":"accessorTangents"},{"bufferView":1,"byteOffset":1452,"componentType":5126,"count":121,"type":"VEC3","name":"accessorNormals"},{"bufferView":3,"componentType":5126,"count":121,"type":"VEC2","name":"accessorUVs"},{"bufferView":0,"byteOffset":1200,"componentType":5123,"count":3660,"type":"SCALAR","name":"accessorIndices"},{"bufferView":1,"byteOffset":2904,"componentType":5126,"count":730,"max":[0.00325630838,0.002463825,0.0124955671],"min":[-0.00404222123,0.000259082473,-0.0122187687],"type":"VEC3","name":"accessorPositions"},{"bufferView":2,"byteOffset":1936,"componentType":5126,"count":730,"type":"VEC4","name":"accessorTangents"},{"bufferView":1,"byteOffset":11664,"componentType":5126,"count":730,"type":"VEC3","name":"accessorNormals"},{"bufferView":3,"byteOffset":968,"componentType":5126,"count":730,"type":"VEC2","name":"accessorUVs"},{"bufferView":0,"byteOffset":8520,"componentType":5123,"count":4344,"type":"SCALAR","name":"accessorIndices"},{"bufferView":1,"byteOffset":20424,"componentType":5126,"count":1068,"max":[0.003256405,0.00246109581,0.0124958772],"min":[-0.00404284336,0.000114222596,-0.0122191235],"type":"VEC3","name":"accessorPositions"},{"bufferView":2,"byteOffset":13616,"componentType":5126,"count":1068,"type":"VEC4","name":"accessorTangents"},{"bufferView":1,"byteOffset":33240,"componentType":5126,"count":1068,"type":"VEC3","name":"accessorNormals"},{"bufferView":3,"byteOffset":6808,"componentType":5126,"count":1068,"type":"VEC2","name":"accessorUVs"},{"bufferView":0,"byteOffset":17208,"componentType":5123,"count":3588,"type":"SCALAR","name":"accessorIndices"},{"bufferView":1,"byteOffset":46056,"componentType":5126,"count":710,"max":[0.00321439281,0.00232130941,0.012487391],"min":[-0.00384793244,9.641289E-05,-0.003689698],"type":"VEC3","name":"accessorPositions"},{"bufferView":2,"byteOffset":30704,"componentType":5126,"count":710,"type":"VEC4","name":"accessorTangents"},{"bufferView":1,"byteOffset":54576,"componentType":5126,"count":710,"type":"VEC3","name":"accessorNormals"},{"bufferView":3,"byteOffset":15352,"componentType":5126,"count":710,"type":"VEC2","name":"accessorUVs"},{"bufferView":0,"byteOffset":24384,"componentType":5123,"count":4710,"type":"SCALAR","name":"accessorIndices"},{"bufferView":1,"byteOffset":63096,"componentType":5126,"count":1148,"max":[0.00325669348,0.0022753363,0.0125007583],"min":[-0.004043026,-8.465913E-06,-0.0122191161],"type":"VEC3","name":"accessorPositions"},{"bufferView":2,"byteOffset":42064,"componentType":5126,"count":1148,"type":"VEC4","name":"accessorTangents"},{"bufferView":1,"byteOffset":76872,"componentType":5126,"count":1148,"type":"VEC3","name":"accessorNormals"},{"bufferView":3,"byteOffset":21032,"componentType":5126,"count":1148,"type":"VEC2","name":"accessorUVs"},{"bufferView":4,"componentType":5126,"count":19,"max":[0.75],"min":[0.0],"type":"SCALAR","name":"accessorAnimationInput"},{"bufferView":5,"componentType":5126,"count":19,"type":"VEC3","name":"accessorAnimationPositions"},{"bufferView":4,"byteOffset":76,"componentType":5126,"count":28,"max":[0.75],"min":[0.0],"type":"SCALAR","name":"accessorAnimationInput"},{"bufferView":6,"componentType":5126,"count":28,"type":"VEC4","name":"accessorAnimationRotations"}],"bufferViews":[{"buffer":0,"byteLength":33804,"name":"bufferViewScalar"},{"buffer":0,"byteOffset":33804,"byteLength":90648,"byteStride":12,"name":"bufferViewFloatVec3"},{"buffer":0,"byteOffset":124452,"byteLength":60432,"byteStride":16,"name":"bufferViewFloatVec4"},{"buffer":0,"byteOffset":184884,"byteLength":30216,"byteStride":8,"name":"bufferViewFloatVec2"},{"buffer":0,"byteOffset":215100,"byteLength":188,"name":"bufferViewAnimationFloatScalar"},{"buffer":0,"byteOffset":215288,"byteLength":228,"name":"bufferViewAnimationFloatVec3"},{"buffer":0,"byteOffset":215516,"byteLength":448,"name":"bufferViewAnimationFloatVec4"}],"buffers":[{"uri":"FSO_OrthoticProducts.bin","byteLength":215964}],"materials":[{"pbrMetallicRoughness":{"baseColorFactor":[0.0,0.0,0.0,1.0],"metallicFactor":0.0,"roughnessFactor":0.150259063},"name":"aiStone"},{"pbrMetallicRoughness":{"baseColorFactor":[0.0,0.0,0.0,1.0],"metallicFactor":0.0},"name":"FSO_OrthoticProducts_model_final:TopFabric_Type1"},{"pbrMetallicRoughness":{"baseColorFactor":[0.7196262,0.7196262,0.7196262,1.0],"metallicFactor":0.0,"roughnessFactor":0.0},"name":"FSO_OrthoticProducts_model_final:WhiteFoam"},{"pbrMetallicRoughness":{"baseColorFactor":[0.0,0.0,0.0,1.0],"metallicFactor":0.0},"name":"FSO_OrthoticProducts_model_final:BlackFoam"},{"pbrMetallicRoughness":{"baseColorFactor":[0.463484049,0.328286231,0.261339247,1.0],"metallicFactor":0.0,"roughnessFactor":0.8262911},"name":"FSO_OrthoticProducts_model_final:Cork_layer"}],"animations":[{"channels":[{"sampler":0,"target":{"node":11,"path":"translation"}},{"sampler":1,"target":{"node":11,"path":"rotation"}}],"samplers":[{"input":25,"output":26},{"input":27,"output":28}],"name":"All Animations"}]}