{"asset":{"version":"2.0","generator":"babylon.js glTF exporter for Maya 2018 v20210308.2"},"scene":0,"scenes":[{"nodes":[0]}],"nodes":[{"children":[1],"translation":[-0.043611858,0.0,0.21754162],"name":"FSO_OrthoticProducts_model_final:Orthotics_models"},{"children":[2,3,4,5],"translation":[0.135290712,0.0,0.00696662534],"rotation":[0.0,0.0243475363,0.0,0.9997035],"scale":[13.7612629,11.9306078,11.9306078],"name":"FSO_OrthoticProducts_model_final:Type1_insole"},{"mesh":0,"translation":[-8.673617E-21,0.0,0.0],"name":"FSO_OrthoticProducts_model_final:TopSheet"},{"mesh":1,"translation":[-8.673617E-21,0.0,0.0],"name":"FSO_OrthoticProducts_model_final:WhiteFoamLayer"},{"mesh":2,"translation":[-8.673617E-21,0.0,0.0],"name":"FSO_OrthoticProducts_model_final:BlackFoamLayer"},{"mesh":3,"translation":[-8.673617E-21,0.0,0.0],"name":"FSO_OrthoticProducts_model_final:polySurface1"}],"meshes":[{"primitives":[{"attributes":{"POSITION":1,"TANGENT":2,"NORMAL":3,"TEXCOORD_0":4},"indices":0,"material":0}],"name":"FSO_OrthoticProducts_model_final:TopSheet"},{"primitives":[{"attributes":{"POSITION":6,"TANGENT":7,"NORMAL":8,"TEXCOORD_0":9},"indices":5,"material":1}],"name":"FSO_OrthoticProducts_model_final:WhiteFoamLayer"},{"primitives":[{"attributes":{"POSITION":11,"TANGENT":12,"NORMAL":13,"TEXCOORD_0":14},"indices":10,"material":2}],"name":"FSO_OrthoticProducts_model_final:BlackFoamLayer"},{"primitives":[{"attributes":{"POSITION":16,"TANGENT":17,"NORMAL":18,"TEXCOORD_0":19},"indices":15,"material":3}],"name":"FSO_OrthoticProducts_model_final:polySurface1"}],"accessors":[{"bufferView":0,"componentType":5123,"count":3660,"type":"SCALAR","name":"accessorIndices"},{"bufferView":1,"componentType":5126,"count":730,"max":[0.00325630838,0.002463825,0.0124955671],"min":[-0.00404222123,0.000259082473,-0.0122187687],"type":"VEC3","name":"accessorPositions"},{"bufferView":2,"componentType":5126,"count":730,"type":"VEC4","name":"accessorTangents"},{"bufferView":1,"byteOffset":8760,"componentType":5126,"count":730,"type":"VEC3","name":"accessorNormals"},{"bufferView":3,"componentType":5126,"count":730,"type":"VEC2","name":"accessorUVs"},{"bufferView":0,"byteOffset":7320,"componentType":5123,"count":4344,"type":"SCALAR","name":"accessorIndices"},{"bufferView":1,"byteOffset":17520,"componentType":5126,"count":1068,"max":[0.003256405,0.00246109581,0.0124958772],"min":[-0.00404284336,0.000114222596,-0.0122191235],"type":"VEC3","name":"accessorPositions"},{"bufferView":2,"byteOffset":11680,"componentType":5126,"count":1068,"type":"VEC4","name":"accessorTangents"},{"bufferView":1,"byteOffset":30336,"componentType":5126,"count":1068,"type":"VEC3","name":"accessorNormals"},{"bufferView":3,"byteOffset":5840,"componentType":5126,"count":1068,"type":"VEC2","name":"accessorUVs"},{"bufferView":0,"byteOffset":16008,"componentType":5123,"count":3588,"type":"SCALAR","name":"accessorIndices"},{"bufferView":1,"byteOffset":43152,"componentType":5126,"count":710,"max":[0.00321439281,0.00232130941,0.012487391],"min":[-0.00384793244,9.641289E-05,-0.003689698],"type":"VEC3","name":"accessorPositions"},{"bufferView":2,"byteOffset":28768,"componentType":5126,"count":710,"type":"VEC4","name":"accessorTangents"},{"bufferView":1,"byteOffset":51672,"componentType":5126,"count":710,"type":"VEC3","name":"accessorNormals"},{"bufferView":3,"byteOffset":14384,"componentType":5126,"count":710,"type":"VEC2","name":"accessorUVs"},{"bufferView":0,"byteOffset":23184,"componentType":5123,"count":4710,"type":"SCALAR","name":"accessorIndices"},{"bufferView":1,"byteOffset":60192,"componentType":5126,"count":1148,"max":[0.00325669348,0.0022753363,0.0125007583],"min":[-0.004043026,-8.465913E-06,-0.0122191161],"type":"VEC3","name":"accessorPositions"},{"bufferView":2,"byteOffset":40128,"componentType":5126,"count":1148,"type":"VEC4","name":"accessorTangents"},{"bufferView":1,"byteOffset":73968,"componentType":5126,"count":1148,"type":"VEC3","name":"accessorNormals"},{"bufferView":3,"byteOffset":20064,"componentType":5126,"count":1148,"type":"VEC2","name":"accessorUVs"}],"bufferViews":[{"buffer":0,"byteLength":32604,"name":"bufferViewScalar"},{"buffer":0,"byteOffset":32604,"byteLength":87744,"byteStride":12,"name":"bufferViewFloatVec3"},{"buffer":0,"byteOffset":120348,"byteLength":58496,"byteStride":16,"name":"bufferViewFloatVec4"},{"buffer":0,"byteOffset":178844,"byteLength":29248,"byteStride":8,"name":"bufferViewFloatVec2"}],"buffers":[{"uri":"FSO_OrthoticProducts.bin","byteLength":208092}],"materials":[{"pbrMetallicRoughness":{"baseColorFactor":[0.0,0.0,0.0,1.0],"metallicFactor":0.0},"name":"FSO_OrthoticProducts_model_final:TopFabric_Type1"},{"pbrMetallicRoughness":{"baseColorFactor":[0.7196262,0.7196262,0.7196262,1.0],"metallicFactor":0.0,"roughnessFactor":0.0},"name":"FSO_OrthoticProducts_model_final:WhiteFoam"},{"pbrMetallicRoughness":{"baseColorFactor":[0.0,0.0,0.0,1.0],"metallicFactor":0.0},"name":"FSO_OrthoticProducts_model_final:BlackFoam"},{"pbrMetallicRoughness":{"baseColorFactor":[0.463484049,0.328286231,0.261339247,1.0],"metallicFactor":0.0,"roughnessFactor":0.8262911},"name":"FSO_OrthoticProducts_model_final:Cork_layer"}]}