{"asset":{"version":"2.0","generator":"babylon.js glTF exporter for Maya 2018 v20210308.2"},"scene":0,"scenes":[{"nodes":[0]}],"nodes":[{"children":[1],"name":"man_body_grp"},{"mesh":0,"name":"skin","extras":{"GoZBrushID":"skin"}}],"meshes":[{"primitives":[{"attributes":{"POSITION":1,"TANGENT":2,"NORMAL":3,"TEXCOORD_0":4},"indices":0,"material":0}],"name":"skin"}],"accessors":[{"bufferView":0,"componentType":5123,"count":184884,"type":"SCALAR","name":"accessorIndices"},{"bufferView":1,"componentType":5126,"count":32502,"max":[0.09987998,0.205201223,0.0232599471],"min":[-0.09988238,-0.000213740917,-0.01790578],"type":"VEC3","name":"accessorPositions"},{"bufferView":2,"componentType":5126,"count":32502,"type":"VEC4","name":"accessorTangents"},{"bufferView":1,"byteOffset":390024,"componentType":5126,"count":32502,"type":"VEC3","name":"accessorNormals"},{"bufferView":3,"componentType":5126,"count":32502,"type":"VEC2","name":"accessorUVs"}],"bufferViews":[{"buffer":0,"byteLength":369768,"name":"bufferViewScalar"},{"buffer":0,"byteOffset":369768,"byteLength":780048,"byteStride":12,"name":"bufferViewFloatVec3"},{"buffer":0,"byteOffset":1149816,"byteLength":520032,"byteStride":16,"name":"bufferViewFloatVec4"},{"buffer":0,"byteOffset":1669848,"byteLength":260016,"byteStride":8,"name":"bufferViewFloatVec2"}],"buffers":[{"uri":"OrcaMan.bin","byteLength":1929864}],"materials":[{"pbrMetallicRoughness":{"metallicFactor":0.0,"roughnessFactor":0.232876286},"name":"maleNew_model_final_skin_whiteSkinShader","extras":{"rednessHeight":14.0}}]}